<svg width="125" height="93" viewBox="0 0 125 93" fill="none" xmlns="http://www.w3.org/2000/svg">
<path d="M12.4639 34.6426C12.4639 34.1445 12.2881 33.7637 11.9365 33.5C11.585 33.2305 10.9521 32.9492 10.0381 32.6562C9.12402 32.3574 8.40039 32.0645 7.86719 31.7773C6.41406 30.9922 5.6875 29.9346 5.6875 28.6045C5.6875 27.9131 5.88086 27.2979 6.26758 26.7588C6.66016 26.2139 7.21973 25.7891 7.94629 25.4844C8.67871 25.1797 9.49902 25.0273 10.4072 25.0273C11.3213 25.0273 12.1357 25.1943 12.8506 25.5283C13.5654 25.8564 14.1191 26.3223 14.5117 26.9258C14.9102 27.5293 15.1094 28.2148 15.1094 28.9824H12.4727C12.4727 28.3965 12.2881 27.9424 11.9189 27.6201C11.5498 27.292 11.0312 27.1279 10.3633 27.1279C9.71875 27.1279 9.21777 27.2656 8.86035 27.541C8.50293 27.8105 8.32422 28.168 8.32422 28.6133C8.32422 29.0293 8.53223 29.3779 8.94824 29.6592C9.37012 29.9404 9.98828 30.2041 10.8027 30.4502C12.3027 30.9014 13.3955 31.4609 14.0811 32.1289C14.7666 32.7969 15.1094 33.6289 15.1094 34.625C15.1094 35.7324 14.6904 36.6025 13.8525 37.2354C13.0146 37.8623 11.8867 38.1758 10.4688 38.1758C9.48438 38.1758 8.58789 37.9971 7.7793 37.6396C6.9707 37.2764 6.35254 36.7812 5.9248 36.1543C5.50293 35.5273 5.29199 34.8008 5.29199 33.9746H7.9375C7.9375 35.3867 8.78125 36.0928 10.4688 36.0928C11.0957 36.0928 11.585 35.9668 11.9365 35.7148C12.2881 35.457 12.4639 35.0996 12.4639 34.6426ZM26.5352 27.3389H22.6152V38H19.9785V27.3389H16.1113V25.2031H26.5352V27.3389ZM43.709 35.3633H39.0859L38.207 38H35.4033L40.167 25.2031H42.6104L47.4004 38H44.5967L43.709 35.3633ZM39.7979 33.2275H42.9971L41.3887 28.4375L39.7979 33.2275ZM59.002 38H56.3652L51.2324 29.5801V38H48.5957V25.2031H51.2324L56.374 33.6406V25.2031H59.002V38ZM61.3047 38V25.2031H65.2422C66.3672 25.2031 67.3721 25.458 68.2568 25.9678C69.1475 26.4717 69.8418 27.1924 70.3398 28.1299C70.8379 29.0615 71.0869 30.1221 71.0869 31.3115V31.9004C71.0869 33.0898 70.8408 34.1475 70.3486 35.0732C69.8623 35.999 69.1738 36.7168 68.2832 37.2266C67.3926 37.7363 66.3877 37.9941 65.2686 38H61.3047ZM63.9414 27.3389V35.8818H65.2158C66.2471 35.8818 67.0352 35.5449 67.5801 34.8711C68.125 34.1973 68.4033 33.2334 68.415 31.9795V31.3027C68.415 30.002 68.1455 29.0176 67.6064 28.3496C67.0674 27.6758 66.2793 27.3389 65.2422 27.3389H63.9414ZM77.749 33.3154H75.6484V38H73.0117V25.2031H77.7666C79.2783 25.2031 80.4443 25.54 81.2646 26.2139C82.085 26.8877 82.4951 27.8398 82.4951 29.0703C82.4951 29.9434 82.3047 30.6729 81.9238 31.2588C81.5488 31.8389 80.9775 32.3018 80.21 32.6475L82.9785 37.877V38H80.1484L77.749 33.3154ZM75.6484 31.1797H77.7754C78.4375 31.1797 78.9502 31.0127 79.3135 30.6787C79.6768 30.3389 79.8584 29.873 79.8584 29.2812C79.8584 28.6777 79.6855 28.2031 79.3398 27.8574C79 27.5117 78.4756 27.3389 77.7666 27.3389H75.6484V31.1797ZM92.207 32.4541H87.1445V35.8818H93.0859V38H84.5078V25.2031H93.0684V27.3389H87.1445V30.3887H92.207V32.4541ZM104.6 34.3086L106.322 25.2031H108.95L106.111 38H103.457L101.374 29.4395L99.291 38H96.6367L93.7979 25.2031H96.4258L98.1572 34.291L100.267 25.2031H102.499L104.6 34.3086ZM117.019 34.6426C117.019 34.1445 116.843 33.7637 116.491 33.5C116.14 33.2305 115.507 32.9492 114.593 32.6562C113.679 32.3574 112.955 32.0645 112.422 31.7773C110.969 30.9922 110.242 29.9346 110.242 28.6045C110.242 27.9131 110.436 27.2979 110.822 26.7588C111.215 26.2139 111.774 25.7891 112.501 25.4844C113.233 25.1797 114.054 25.0273 114.962 25.0273C115.876 25.0273 116.69 25.1943 117.405 25.5283C118.12 25.8564 118.674 26.3223 119.066 26.9258C119.465 27.5293 119.664 28.2148 119.664 28.9824H117.027C117.027 28.3965 116.843 27.9424 116.474 27.6201C116.104 27.292 115.586 27.1279 114.918 27.1279C114.273 27.1279 113.772 27.2656 113.415 27.541C113.058 27.8105 112.879 28.168 112.879 28.6133C112.879 29.0293 113.087 29.3779 113.503 29.6592C113.925 29.9404 114.543 30.2041 115.357 30.4502C116.857 30.9014 117.95 31.4609 118.636 32.1289C119.321 32.7969 119.664 33.6289 119.664 34.625C119.664 35.7324 119.245 36.6025 118.407 37.2354C117.569 37.8623 116.441 38.1758 115.023 38.1758C114.039 38.1758 113.143 37.9971 112.334 37.6396C111.525 37.2764 110.907 36.7812 110.479 36.1543C110.058 35.5273 109.847 34.8008 109.847 33.9746H112.492C112.492 35.3867 113.336 36.0928 115.023 36.0928C115.65 36.0928 116.14 35.9668 116.491 35.7148C116.843 35.457 117.019 35.0996 117.019 34.6426Z" fill="#8C0404"/>
<path d="M19.6296 70H6.47237V67.3896L12.6818 60.7715C13.5344 59.8398 14.1628 59.0269 14.5671 58.3325C14.9802 57.6382 15.1867 56.979 15.1867 56.355C15.1867 55.5024 14.9714 54.8345 14.5407 54.3511C14.1101 53.8589 13.4948 53.6128 12.695 53.6128C11.8337 53.6128 11.1525 53.9116 10.6516 54.5093C10.1594 55.0981 9.91328 55.876 9.91328 56.8428H6.09004C6.09004 55.6738 6.3669 54.606 6.92061 53.6392C7.48311 52.6724 8.27412 51.9165 9.29366 51.3716C10.3132 50.8179 11.4689 50.541 12.7609 50.541C14.7385 50.541 16.2722 51.0156 17.362 51.9648C18.4606 52.9141 19.01 54.2544 19.01 55.9858C19.01 56.9351 18.7639 57.9019 18.2717 58.8862C17.7795 59.8706 16.9357 61.0176 15.7404 62.3271L11.3767 66.9282H19.6296V70ZM52.4462 62.0635C52.4462 64.7178 51.8969 66.748 50.7982 68.1543C49.6996 69.5605 48.0912 70.2637 45.973 70.2637C43.8813 70.2637 42.2816 69.5737 41.1742 68.1938C40.0668 66.814 39.4999 64.8364 39.4735 62.2612V58.728C39.4735 56.0474 40.0272 54.0127 41.1347 52.624C42.2509 51.2354 43.8549 50.541 45.9467 50.541C48.0385 50.541 49.6381 51.231 50.7455 52.6108C51.8529 53.9819 52.4198 55.9551 52.4462 58.5303V62.0635ZM48.6361 58.1875C48.6361 56.5967 48.4164 55.4409 47.977 54.7202C47.5463 53.9907 46.8695 53.626 45.9467 53.626C45.0502 53.626 44.3866 53.9731 43.956 54.6675C43.5341 55.353 43.31 56.4297 43.2836 57.8975V62.5645C43.2836 64.1289 43.4945 65.2935 43.9164 66.0581C44.3471 66.814 45.0326 67.1919 45.973 67.1919C46.9047 67.1919 47.5771 66.8271 47.9901 66.0977C48.4032 65.3682 48.6186 64.252 48.6361 62.749V58.1875ZM85.7374 70H72.5802V67.3896L78.7896 60.7715C79.6422 59.8398 80.2706 59.0269 80.6749 58.3325C81.088 57.6382 81.2945 56.979 81.2945 56.355C81.2945 55.5024 81.0792 54.8345 80.6485 54.3511C80.2179 53.8589 79.6026 53.6128 78.8028 53.6128C77.9415 53.6128 77.2604 53.9116 76.7594 54.5093C76.2672 55.0981 76.0211 55.876 76.0211 56.8428H72.1979C72.1979 55.6738 72.4747 54.606 73.0284 53.6392C73.5909 52.6724 74.3819 51.9165 75.4015 51.3716C76.421 50.8179 77.5768 50.541 78.8688 50.541C80.8463 50.541 82.38 51.0156 83.4698 51.9648C84.5685 52.9141 85.1178 54.2544 85.1178 55.9858C85.1178 56.9351 84.8717 57.9019 84.3795 58.8862C83.8873 59.8706 83.0436 61.0176 81.8482 62.3271L77.4845 66.9282H85.7374V70ZM118.554 62.0635C118.554 64.7178 118.005 66.748 116.906 68.1543C115.807 69.5605 114.199 70.2637 112.081 70.2637C109.989 70.2637 108.389 69.5737 107.282 68.1938C106.175 66.814 105.608 64.8364 105.581 62.2612V58.728C105.581 56.0474 106.135 54.0127 107.242 52.624C108.359 51.2354 109.963 50.541 112.054 50.541C114.146 50.541 115.746 51.231 116.853 52.6108C117.961 53.9819 118.528 55.9551 118.554 58.5303V62.0635ZM114.744 58.1875C114.744 56.5967 114.524 55.4409 114.085 54.7202C113.654 53.9907 112.977 53.626 112.054 53.626C111.158 53.626 110.494 53.9731 110.064 54.6675C109.642 55.353 109.418 56.4297 109.391 57.8975V62.5645C109.391 64.1289 109.602 65.2935 110.024 66.0581C110.455 66.814 111.14 67.1919 112.081 67.1919C113.012 67.1919 113.685 66.8271 114.098 66.0977C114.511 65.3682 114.726 64.252 114.744 62.749V58.1875Z" fill="#000B6A"/>
</svg>
