<svg width="163" height="64" viewBox="0 0 163 64" fill="none" xmlns="http://www.w3.org/2000/svg">
<path d="M6.89551 24H4.96191V6.56543H6.89551V24ZM4.62354 1.52197C4.62354 1.15674 4.7417 0.850586 4.97803 0.603516C5.21436 0.345703 5.53662 0.216797 5.94482 0.216797C6.35303 0.216797 6.67529 0.345703 6.91162 0.603516C7.15869 0.850586 7.28223 1.15674 7.28223 1.52197C7.28223 1.88721 7.15869 2.19336 6.91162 2.44043C6.67529 2.6875 6.35303 2.81104 5.94482 2.81104C5.53662 2.81104 5.21436 2.6875 4.97803 2.44043C4.7417 2.19336 4.62354 1.88721 4.62354 1.52197ZM29.5347 21.2124C28.8472 22.1899 27.7676 22.9526 26.2959 23.5005C24.835 24.0483 23.1968 24.3223 21.3813 24.3223C19.5444 24.3223 17.9116 23.8818 16.4829 23.001C15.0542 22.1201 13.9478 20.874 13.1636 19.2627C12.3794 17.6514 11.9819 15.8037 11.9712 13.7197V10.7549C11.9712 7.5 12.793 4.93262 14.4365 3.05273C16.0801 1.16211 18.2876 0.216797 21.0591 0.216797C23.4761 0.216797 25.4204 0.834473 26.8921 2.06982C28.3638 3.29443 29.2393 4.98633 29.5186 7.14551H27.5366C27.2466 5.42676 26.543 4.12695 25.4258 3.24609C24.3193 2.35449 22.8691 1.90869 21.0752 1.90869C18.8838 1.90869 17.1489 2.6875 15.8706 4.24512C14.5923 5.80273 13.9531 7.99951 13.9531 10.8354V13.6069C13.9531 15.3901 14.2539 16.9692 14.8555 18.3442C15.4678 19.7085 16.3379 20.7666 17.4658 21.5186C18.6045 22.2705 19.9097 22.6465 21.3813 22.6465C23.0894 22.6465 24.5557 22.3779 25.7803 21.8408C26.5752 21.4863 27.166 21.0728 27.5527 20.6001V14.5415H21.2524V12.8657H29.5347V21.2124ZM48.1133 12.7529H37.1401V22.3242H49.7568V24H35.1582V0.539062H49.6763V2.23096H37.1401V11.0771H48.1133V12.7529ZM56.5728 0.539062L65.2256 21.2446L73.9106 0.539062H76.5532V24H74.5713V13.7842L74.7324 3.31055L65.999 24H64.4683L55.7671 3.39111L55.9282 13.7197V24H53.9463V0.539062H56.5728ZM104.461 24H89.7661V22.5176L97.8066 13.3975C99.1387 11.8613 100.062 10.5938 100.578 9.59473C101.094 8.5957 101.352 7.62354 101.352 6.67822C101.352 5.1958 100.917 4.0249 100.046 3.16553C99.1763 2.29541 97.9785 1.86035 96.4531 1.86035C94.874 1.86035 93.5957 2.36523 92.6182 3.375C91.6514 4.38477 91.168 5.69531 91.168 7.30664H89.2505C89.2505 5.98535 89.5459 4.78223 90.1367 3.69727C90.7383 2.6123 91.5869 1.76367 92.6826 1.15137C93.7891 0.52832 95.0459 0.216797 96.4531 0.216797C98.6016 0.216797 100.277 0.780762 101.48 1.90869C102.694 3.03662 103.301 4.57275 103.301 6.51709C103.301 7.61279 102.958 8.81055 102.27 10.1104C101.593 11.4102 100.396 13.0322 98.6768 14.9766L92.1348 22.3726H104.461V24ZM122.218 14.2192C122.218 17.5278 121.611 20.0415 120.397 21.7603C119.184 23.4683 117.395 24.3223 115.032 24.3223C112.711 24.3223 110.934 23.4844 109.698 21.8086C108.463 20.1221 107.829 17.6729 107.797 14.4609V10.2554C107.797 6.95752 108.409 4.45996 109.634 2.7627C110.858 1.06543 112.647 0.216797 115 0.216797C117.32 0.216797 119.092 1.03857 120.317 2.68213C121.542 4.31494 122.175 6.72656 122.218 9.91699V14.2192ZM120.285 10.0137C120.285 7.32812 119.844 5.29785 118.963 3.92285C118.093 2.54785 116.772 1.86035 115 1.86035C113.259 1.86035 111.949 2.53174 111.068 3.87451C110.187 5.21729 109.736 7.19922 109.714 9.82031V14.4287C109.714 17.1035 110.166 19.1499 111.068 20.5679C111.981 21.9858 113.302 22.6948 115.032 22.6948C116.75 22.6948 118.05 22.002 118.931 20.6162C119.823 19.2305 120.274 17.2002 120.285 14.5254V10.0137ZM141.071 24H126.375V22.5176L134.416 13.3975C135.748 11.8613 136.672 10.5938 137.188 9.59473C137.703 8.5957 137.961 7.62354 137.961 6.67822C137.961 5.1958 137.526 4.0249 136.656 3.16553C135.786 2.29541 134.588 1.86035 133.062 1.86035C131.483 1.86035 130.205 2.36523 129.228 3.375C128.261 4.38477 127.777 5.69531 127.777 7.30664H125.86C125.86 5.98535 126.155 4.78223 126.746 3.69727C127.348 2.6123 128.196 1.76367 129.292 1.15137C130.398 0.52832 131.655 0.216797 133.062 0.216797C135.211 0.216797 136.887 0.780762 138.09 1.90869C139.304 3.03662 139.911 4.57275 139.911 6.51709C139.911 7.61279 139.567 8.81055 138.879 10.1104C138.203 11.4102 137.005 13.0322 135.286 14.9766L128.744 22.3726H141.071V24ZM158.828 14.2192C158.828 17.5278 158.221 20.0415 157.007 21.7603C155.793 23.4683 154.004 24.3223 151.641 24.3223C149.321 24.3223 147.543 23.4844 146.308 21.8086C145.072 20.1221 144.438 17.6729 144.406 14.4609V10.2554C144.406 6.95752 145.019 4.45996 146.243 2.7627C147.468 1.06543 149.256 0.216797 151.609 0.216797C153.929 0.216797 155.702 1.03857 156.926 2.68213C158.151 4.31494 158.785 6.72656 158.828 9.91699V14.2192ZM156.894 10.0137C156.894 7.32812 156.454 5.29785 155.573 3.92285C154.703 2.54785 153.381 1.86035 151.609 1.86035C149.869 1.86035 148.558 2.53174 147.677 3.87451C146.796 5.21729 146.345 7.19922 146.324 9.82031V14.4287C146.324 17.1035 146.775 19.1499 147.677 20.5679C148.59 21.9858 149.912 22.6948 151.641 22.6948C153.36 22.6948 154.66 22.002 155.541 20.6162C156.432 19.2305 156.883 17.2002 156.894 14.5254V10.0137ZM15.3711 57.2314C15.3711 55.9316 14.9146 54.9058 14.0015 54.1538C13.0884 53.3911 11.418 52.6714 8.99023 51.9946C6.5625 51.3071 4.79004 50.5605 3.67285 49.7549C2.08301 48.6162 1.28809 47.123 1.28809 45.2754C1.28809 43.4814 2.02393 42.0259 3.49561 40.9087C4.97803 39.7808 6.86865 39.2168 9.16748 39.2168C10.7251 39.2168 12.1162 39.5176 13.3408 40.1191C14.5762 40.7207 15.5322 41.5586 16.209 42.6328C16.8857 43.707 17.2241 44.9048 17.2241 46.2261H15.2261C15.2261 44.6255 14.6782 43.3418 13.5825 42.375C12.4868 41.3975 11.0151 40.9087 9.16748 40.9087C7.37354 40.9087 5.94482 41.3115 4.88135 42.1172C3.81787 42.9121 3.28613 43.9541 3.28613 45.2432C3.28613 46.4355 3.76416 47.4077 4.72021 48.1597C5.67627 48.9116 7.20703 49.5776 9.3125 50.1577C11.418 50.7271 13.0132 51.3232 14.0981 51.9463C15.1831 52.5586 15.9995 53.2944 16.5474 54.1538C17.0952 55.0132 17.3691 56.0283 17.3691 57.1992C17.3691 59.0469 16.6279 60.5293 15.1455 61.6465C13.6738 62.7637 11.7295 63.3223 9.3125 63.3223C7.6582 63.3223 6.13818 63.0269 4.75244 62.436C3.37744 61.8452 2.33008 61.0181 1.61035 59.9546C0.901367 58.8911 0.546875 57.6719 0.546875 56.2969H2.52881C2.52881 57.9512 3.14648 59.2563 4.38184 60.2124C5.61719 61.1685 7.26074 61.6465 9.3125 61.6465C11.1387 61.6465 12.605 61.2437 13.7114 60.438C14.8179 59.6323 15.3711 58.5635 15.3711 57.2314ZM24.2012 41.1021V45.5654H27.8105V47.1445H24.2012V58.7622C24.2012 59.729 24.373 60.4487 24.7168 60.9214C25.0713 61.394 25.6567 61.6304 26.4731 61.6304C26.7954 61.6304 27.3164 61.5767 28.0361 61.4692L28.1167 63.0483C27.6118 63.231 26.9243 63.3223 26.0542 63.3223C24.7329 63.3223 23.7715 62.9409 23.1699 62.1782C22.5684 61.4048 22.2676 60.2715 22.2676 58.7783V47.1445H19.061V45.5654H22.2676V41.1021H24.2012ZM52.9473 56.4258H42.2964L39.8794 63H37.8008L46.6792 39.5391H48.5645L57.4429 63H55.3804L52.9473 56.4258ZM42.9087 54.7339H52.3188L47.6138 41.9561L42.9087 54.7339ZM62.293 45.5654L62.3574 48.5464C63.0127 47.4722 63.8291 46.6558 64.8066 46.0972C65.7842 45.5278 66.8638 45.2432 68.0454 45.2432C69.9146 45.2432 71.3057 45.7695 72.2188 46.8223C73.1318 47.875 73.5938 49.4541 73.6045 51.5596V63H71.687V51.5435C71.6763 49.9858 71.3433 48.8257 70.688 48.063C70.0435 47.3003 69.0068 46.9189 67.5781 46.9189C66.3857 46.9189 65.3276 47.2949 64.4038 48.0469C63.4907 48.7881 62.814 49.7925 62.3735 51.0601V63H60.4561V45.5654H62.293ZM77.8262 54.1216C77.8262 51.4146 78.4277 49.2607 79.6309 47.6602C80.8447 46.0488 82.4883 45.2432 84.5615 45.2432C86.9141 45.2432 88.708 46.1724 89.9434 48.0308V38.25H91.8608V63H90.0562L89.9756 60.6797C88.7402 62.4414 86.9248 63.3223 84.5293 63.3223C82.5205 63.3223 80.8984 62.5166 79.6631 60.9053C78.4385 59.2832 77.8262 57.0972 77.8262 54.3472V54.1216ZM79.7759 54.46C79.7759 56.6836 80.2217 58.4399 81.1133 59.729C82.0049 61.0073 83.2617 61.6465 84.8838 61.6465C87.2578 61.6465 88.9443 60.5991 89.9434 58.5044V50.3188C88.9443 48.0522 87.2686 46.9189 84.916 46.9189C83.2939 46.9189 82.0317 47.5581 81.1294 48.8364C80.2271 50.104 79.7759 51.9785 79.7759 54.46ZM104.993 47.209C104.585 47.1338 104.15 47.0962 103.688 47.0962C102.485 47.0962 101.464 47.4346 100.626 48.1113C99.7993 48.7773 99.2085 49.7495 98.854 51.0278V63H96.9365V45.5654H98.8218L98.854 48.3369C99.8745 46.2744 101.513 45.2432 103.769 45.2432C104.306 45.2432 104.73 45.313 105.042 45.4526L104.993 47.209ZM114.484 63.3223C113.001 63.3223 111.659 62.957 110.456 62.2266C109.263 61.4961 108.334 60.481 107.668 59.1812C107.002 57.8706 106.669 56.4043 106.669 54.7822V54.0894C106.669 52.4136 106.991 50.9043 107.636 49.5615C108.291 48.2188 109.199 47.166 110.359 46.4033C111.519 45.6299 112.776 45.2432 114.129 45.2432C116.246 45.2432 117.921 45.9683 119.157 47.4185C120.403 48.8579 121.026 50.8291 121.026 53.332V54.4116H108.586V54.7822C108.586 56.7588 109.15 58.4077 110.278 59.729C111.417 61.0396 112.846 61.6948 114.564 61.6948C115.596 61.6948 116.503 61.5068 117.288 61.1309C118.083 60.7549 118.802 60.1533 119.447 59.3262L120.655 60.2446C119.237 62.2964 117.18 63.3223 114.484 63.3223ZM114.129 46.8867C112.679 46.8867 111.455 47.4185 110.456 48.4819C109.467 49.5454 108.866 50.9741 108.651 52.7681H119.108V52.5586C119.055 50.8828 118.577 49.5186 117.674 48.4658C116.772 47.4131 115.59 46.8867 114.129 46.8867ZM128.954 58.9878L129.244 60.4863L129.63 58.9072L133.82 45.5654H135.463L139.604 58.7944L140.056 60.6313L140.426 58.9395L144.003 45.5654H146.001L140.926 63H139.282L134.803 49.1748L134.593 48.2241L134.384 49.1909L129.985 63H128.341L123.282 45.5654H125.264L128.954 58.9878ZM160.101 58.5688C160.101 57.6128 159.714 56.8447 158.94 56.2646C158.178 55.6846 157.023 55.2334 155.476 54.9111C153.929 54.5781 152.726 54.2021 151.867 53.7832C151.018 53.3535 150.384 52.8325 149.965 52.2202C149.557 51.6079 149.353 50.8667 149.353 49.9966C149.353 48.6216 149.928 47.4883 151.077 46.5967C152.227 45.6943 153.698 45.2432 155.492 45.2432C157.437 45.2432 158.994 45.7266 160.165 46.6934C161.347 47.6494 161.938 48.9009 161.938 50.4478H160.004C160.004 49.4272 159.574 48.5786 158.715 47.9019C157.866 47.2251 156.792 46.8867 155.492 46.8867C154.225 46.8867 153.204 47.1714 152.431 47.7407C151.668 48.2993 151.287 49.0298 151.287 49.9321C151.287 50.8022 151.604 51.479 152.237 51.9624C152.882 52.4351 154.047 52.8701 155.734 53.2676C157.431 53.665 158.699 54.0894 159.537 54.5405C160.385 54.9917 161.014 55.5342 161.422 56.168C161.83 56.8018 162.034 57.5698 162.034 58.4722C162.034 59.9438 161.438 61.1201 160.246 62.001C159.064 62.8818 157.517 63.3223 155.605 63.3223C153.575 63.3223 151.926 62.8335 150.658 61.856C149.401 60.8677 148.773 59.6216 148.773 58.1177H150.707C150.782 59.2456 151.254 60.1265 152.125 60.7603C153.005 61.3833 154.166 61.6948 155.605 61.6948C156.948 61.6948 158.033 61.3994 158.86 60.8086C159.687 60.2178 160.101 59.4712 160.101 58.5688Z" fill="black"/>
</svg>
